{
  "accessors": [
    {
      "bufferView": 2,
      "componentType": 5126,
      "count": 33702,
      "max": [
        0.038500212132930756,
        0.16302886605262756,
        0.00550661887973547
      ],
      "min": [
        -0.03849990293383598,
        -1.6465792214148678e-06,
        -0.0055972253903746605
      ],
      "type": "VEC3"
    },
    {
      "bufferView": 2,
      "byteOffset": 404424,
      "componentType": 5126,
      "count": 33702,
      "max": [
        1.0,
        1.0,
        1.0
      ],
      "min": [
        -1.0,
        -1.0,
        -1.0
      ],
      "type": "VEC3"
    },
    {
      "bufferView": 3,
      "componentType": 5126,
      "count": 33702,
      "max": [
        1.0,
        1.0,
        1.0,
        1.0
      ],
      "min": [
        -1.0,
        -1.0,
        -1.0,
        -1.0
      ],
      "type": "VEC4"
    },
    {
      "bufferView": 1,
      "componentType": 5126,
      "count": 33702,
      "max": [
        0.998553454875946,
        0.9982352256774902
      ],
      "min": [
        0.001697832252830267,
        0.0010607242584228516
      ],
      "type": "VEC2"
    },
    {
      "bufferView": 1,
      "byteOffset": 269616,
      "componentType": 5126,
      "count": 33702,
      "max": [
        0.998553454875946,
        0.9982352256774902
      ],
      "min": [
        0.001697832252830267,
        0.0010607242584228516
      ],
      "type": "VEC2"
    },
    {
      "bufferView": 1,
      "byteOffset": 539232,
      "componentType": 5126,
      "count": 33702,
      "max": [
        0.998553454875946,
        0.9982352256774902
      ],
      "min": [
        0.001697832252830267,
        0.0010607242584228516
      ],
      "type": "VEC2"
    },
    {
      "bufferView": 1,
      "byteOffset": 808848,
      "componentType": 5126,
      "count": 33702,
      "max": [
        0.998553454875946,
        0.9982352256774902
      ],
      "min": [
        0.001697832252830267,
        0.0010607242584228516
      ],
      "type": "VEC2"
    },
    {
      "bufferView": 1,
      "byteOffset": 1078464,
      "componentType": 5126,
      "count": 33702,
      "max": [
        0.998553454875946,
        0.9982352256774902
      ],
      "min": [
        0.001697832252830267,
        0.0010607242584228516
      ],
      "type": "VEC2"
    },
    {
      "bufferView": 1,
      "byteOffset": 1348080,
      "componentType": 5126,
      "count": 33702,
      "max": [
        0.998553454875946,
        0.9982352256774902
      ],
      "min": [
        0.001697832252830267,
        0.0010607242584228516
      ],
      "type": "VEC2"
    },
    {
      "bufferView": 0,
      "componentType": 5125,
      "count": 152598,
      "type": "SCALAR"
    },
    {
      "bufferView": 2,
      "byteOffset": 808848,
      "componentType": 5126,
      "count": 1600,
      "max": [
        0.0374024473130703,
        0.16144603490829468,
        0.0055979774333536625
      ],
      "min": [
        -0.03781428933143616,
        0.0016049002297222614,
        -0.005596964620053768
      ],
      "type": "VEC3"
    },
    {
      "bufferView": 2,
      "byteOffset": 828048,
      "componentType": 5126,
      "count": 1600,
      "max": [
        1.0,
        1.0,
        1.0
      ],
      "min": [
        -1.0,
        -1.0,
        -1.0
      ],
      "type": "VEC3"
    },
    {
      "bufferView": 3,
      "byteOffset": 539232,
      "componentType": 5126,
      "count": 1600,
      "max": [
        1.0,
        0.9633779525756836,
        0.9999982714653015,
        1.0
      ],
      "min": [
        -1.0,
        -0.963371992111206,
        -0.999997615814209,
        -1.0
      ],
      "type": "VEC4"
    },
    {
      "bufferView": 1,
      "byteOffset": 1617696,
      "componentType": 5126,
      "count": 1600,
      "max": [
        0.9710909128189087,
        1.0
      ],
      "min": [
        0.0,
        1.7881393432617188e-07
      ],
      "type": "VEC2"
    },
    {
      "bufferView": 1,
      "byteOffset": 1630496,
      "componentType": 5126,
      "count": 1600,
      "max": [
        0.9710909128189087,
        1.0
      ],
      "min": [
        0.0,
        1.7881393432617188e-07
      ],
      "type": "VEC2"
    },
    {
      "bufferView": 1,
      "byteOffset": 1643296,
      "componentType": 5126,
      "count": 1600,
      "max": [
        0.9710909128189087,
        1.0
      ],
      "min": [
        0.0,
        1.7881393432617188e-07
      ],
      "type": "VEC2"
    },
    {
      "bufferView": 1,
      "byteOffset": 1656096,
      "componentType": 5126,
      "count": 1600,
      "max": [
        0.9710909128189087,
        1.0
      ],
      "min": [
        0.0,
        1.7881393432617188e-07
      ],
      "type": "VEC2"
    },
    {
      "bufferView": 1,
      "byteOffset": 1668896,
      "componentType": 5126,
      "count": 1600,
      "max": [
        0.9710909128189087,
        1.0
      ],
      "min": [
        0.0,
        1.7881393432617188e-07
      ],
      "type": "VEC2"
    },
    {
      "bufferView": 1,
      "byteOffset": 1681696,
      "componentType": 5126,
      "count": 1600,
      "max": [
        0.9710909128189087,
        1.0
      ],
      "min": [
        0.0,
        1.7881393432617188e-07
      ],
      "type": "VEC2"
    },
    {
      "bufferView": 0,
      "byteOffset": 610392,
      "componentType": 5125,
      "count": 8670,
      "type": "SCALAR"
    }
  ],
  "asset": {
    "extras": {
      "author": "ossssn (https://sketchfab.com/ossssn)",
      "license": "CC-BY-4.0 (http://creativecommons.org/licenses/by/4.0/)",
      "source": "https://sketchfab.com/3d-models/google-pixel-7pro-c46e13868498492c9d100ce07a859ef0",
      "title": "google-pixel-7pro"
    },
    "generator": "Sketchfab-15.20.0",
    "version": "2.0"
  },
  "bufferViews": [
    {
      "buffer": 0,
      "byteLength": 645072,
      "name": "floatBufferViews",
      "target": 34963
    },
    {
      "buffer": 0,
      "byteLength": 1694496,
      "byteOffset": 645072,
      "byteStride": 8,
      "name": "floatBufferViews",
      "target": 34962
    },
    {
      "buffer": 0,
      "byteLength": 847248,
      "byteOffset": 2339568,
      "byteStride": 12,
      "name": "floatBufferViews",
      "target": 34962
    },
    {
      "buffer": 0,
      "byteLength": 564832,
      "byteOffset": 3186816,
      "byteStride": 16,
      "name": "floatBufferViews",
      "target": 34962
    }
  ],
  "buffers": [
    {
      "byteLength": 3751648,
      "uri": "scene.bin"
    }
  ],
  "images": [
    {
      "uri": "textures/M_0_0_baseColor.jpeg"
    },
    {
      "uri": "textures/M_0_0_metallicRoughness.png"
    },
    {
      "uri": "textures/M_0_0_emissive.jpeg"
    },
    {
      "uri": "textures/M_0_0_normal.jpeg"
    },
    {
      "uri": "textures/M_1_1_baseColor.png"
    },
    {
      "uri": "textures/M_1_1_metallicRoughness.png"
    },
    {
      "uri": "textures/M_1_1_normal.jpeg"
    }
  ],
  "materials": [
    {
      "emissiveFactor": [
        1.0,
        1.0,
        1.0
      ],
      "emissiveTexture": {
        "index": 2
      },
      "name": "M_0_0",
      "normalTexture": {
        "index": 3
      },
      "occlusionTexture": {
        "index": 1
      },
      "pbrMetallicRoughness": {
        "baseColorTexture": {
          "index": 0
        },
        "metallicRoughnessTexture": {
          "index": 1
        }
      }
    },
    {
      "alphaMode": "BLEND",
      "name": "M_1_1",
      "normalTexture": {
        "index": 6
      },
      "occlusionTexture": {
        "index": 5
      },
      "pbrMetallicRoughness": {
        "baseColorTexture": {
          "index": 4
        },
        "metallicRoughnessTexture": {
          "index": 5
        }
      }
    }
  ],
  "meshes": [
    {
      "name": "C10",
      "primitives": [
        {
          "attributes": {
            "NORMAL": 1,
            "POSITION": 0,
            "TANGENT": 2,
            "TEXCOORD_0": 3,
            "TEXCOORD_1": 4,
            "TEXCOORD_2": 5,
            "TEXCOORD_3": 6,
            "TEXCOORD_4": 7,
            "TEXCOORD_5": 8
          },
          "indices": 9,
          "material": 0,
          "mode": 4
        }
      ]
    },
    {
      "name": "C10_Glass",
      "primitives": [
        {
          "attributes": {
            "NORMAL": 11,
            "POSITION": 10,
            "TANGENT": 12,
            "TEXCOORD_0": 13,
            "TEXCOORD_1": 14,
            "TEXCOORD_2": 15,
            "TEXCOORD_3": 16,
            "TEXCOORD_4": 17,
            "TEXCOORD_5": 18
          },
          "indices": 19,
          "material": 1,
          "mode": 4
        }
      ]
    }
  ],
  "nodes": [
    {
      "children": [
        1
      ],
      "matrix": [
        1.0,
        0.0,
        0.0,
        0.0,
        0.0,
        2.220446049250313e-16,
        -1.0,
        0.0,
        0.0,
        1.0,
        2.220446049250313e-16,
        0.0,
        0.0,
        0.0,
        0.0,
        1.0
      ],
      "name": "Sketchfab_model"
    },
    {
      "children": [
        2
      ],
      "matrix": [
        0.009999999776482582,
        0.0,
        0.0,
        0.0,
        0.0,
        2.2204459996194763e-18,
        0.009999999776482582,
        0.0,
        0.0,
        -0.009999999776482582,
        2.2204459996194763e-18,
        0.0,
        0.0,
        0.0,
        0.0,
        1.0
      ],
      "name": "USDRoot"
    },
    {
      "children": [
        3
      ],
      "name": "GA03455_US_Hazel"
    },
    {
      "children": [
        4,
        6
      ],
      "matrix": [
        100.0,
        0.0,
        0.0,
        0.0,
        0.0,
        100.0,
        0.0,
        0.0,
        0.0,
        0.0,
        100.0,
        0.0,
        0.0,
        0.0,
        0.0,
        1.0
      ],
      "name": "Meshes"
    },
    {
      "children": [
        5
      ],
      "name": "C10"
    },
    {
      "mesh": 0,
      "name": "C10"
    },
    {
      "children": [
        7
      ],
      "name": "C10_Glass"
    },
    {
      "mesh": 1,
      "name": "C10_Glass"
    }
  ],
  "samplers": [
    {
      "magFilter": 9729,
      "minFilter": 9987,
      "wrapS": 10497,
      "wrapT": 10497
    }
  ],
  "scene": 0,
  "scenes": [
    {
      "name": "Sketchfab_Scene",
      "nodes": [
        0
      ]
    }
  ],
  "textures": [
    {
      "sampler": 0,
      "source": 0
    },
    {
      "sampler": 0,
      "source": 1
    },
    {
      "sampler": 0,
      "source": 2
    },
    {
      "sampler": 0,
      "source": 3
    },
    {
      "sampler": 0,
      "source": 4
    },
    {
      "sampler": 0,
      "source": 5
    },
    {
      "sampler": 0,
      "source": 6
    }
  ]
}
