{
  "asset": {
    "version": "2.0",
    "generator": "THREE.GLTFExporter r168"
  },
  "scenes": [
    {
      "name": "Scene",
      "nodes": [
        9
      ]
    }
  ],
  "scene": 0,
  "nodes": [
    {
      "name": "Object_4",
      "extras": {
        "name": "Object_4"
      },
      "mesh": 0
    },
    {
      "name": "Object_5",
      "extras": {
        "name": "Object_5"
      },
      "mesh": 1
    },
    {
      "name": "Object_6",
      "extras": {
        "name": "Object_6"
      },
      "mesh": 2
    },
    {
      "name": "Object_7",
      "extras": {
        "name": "Object_7"
      },
      "mesh": 3
    },
    {
      "name": "Object_8",
      "extras": {
        "name": "Object_8"
      },
      "mesh": 4
    },
    {
      "matrix": [
        6.054466705762707e-9,
        1.816340011728812e-8,
        -0.05078854784369108,
        0,
        0.05101945251226389,
        -1.0875450409514027e-15,
        6.081992687256843e-9,
        0,
        6.433422228072897e-16,
        -0.030180789530275327,
        -1.0793491433958026e-8,
        0,
        1.1311137676239014,
        0,
        -1.5312460660934448,
        1
      ],
      "name": "Circle001_2",
      "extras": {
        "name": "Circle.001_2"
      },
      "children": [
        0,
        1,
        2,
        3,
        4
      ]
    },
    {
      "matrix": [
        1,
        0,
        0,
        0,
        0,
        2.220446049250313e-16,
        1,
        0,
        0,
        -1,
        2.220446049250313e-16,
        0,
        0,
        0,
        0,
        1
      ],
      "name": "GLTF_SceneRootNode",
      "extras": {
        "name": "GLTF_SceneRootNode"
      },
      "children": [
        5
      ]
    },
    {
      "name": "root",
      "extras": {
        "name": "root"
      },
      "children": [
        6
      ]
    },
    {
      "matrix": [
        1,
        0,
        0,
        0,
        0,
        2.220446049250313e-16,
        -1,
        0,
        0,
        1,
        2.220446049250313e-16,
        0,
        0,
        0,
        0,
        1
      ],
      "name": "Sketchfab_model",
      "extras": {
        "name": "Sketchfab_model"
      },
      "children": [
        7
      ]
    },
    {
      "matrix": [
        1,
        0,
        0,
        0,
        0,
        0.017201000729874072,
        0.9998520518426167,
        0,
        0,
        -0.9998520518426167,
        0.017201000729874072,
        0,
        0,
        0,
        0,
        1
      ],
      "name": "scene.gltf",
      "children": [
        8
      ]
    }
  ],
  "bufferViews": [
    {
      "buffer": 0,
      "byteOffset": 0,
      "byteLength": 4848,
      "target": 34962,
      "byteStride": 12
    },
    {
      "buffer": 0,
      "byteOffset": 4848,
      "byteLength": 4848,
      "target": 34962,
      "byteStride": 12
    },
    {
      "buffer": 0,
      "byteOffset": 9696,
      "byteLength": 3232,
      "target": 34962,
      "byteStride": 8
    },
    {
      "buffer": 0,
      "byteOffset": 12928,
      "byteLength": 4824,
      "target": 34963
    },
    {
      "buffer": 0,
      "byteOffset": 17752,
      "byteLength": 418620,
      "target": 34962,
      "byteStride": 12
    },
    {
      "buffer": 0,
      "byteOffset": 436372,
      "byteLength": 418620,
      "target": 34962,
      "byteStride": 12
    },
    {
      "buffer": 0,
      "byteOffset": 854992,
      "byteLength": 279080,
      "target": 34962,
      "byteStride": 8
    },
    {
      "buffer": 0,
      "byteOffset": 1134072,
      "byteLength": 804384,
      "target": 34963
    },
    {
      "buffer": 0,
      "byteOffset": 1938456,
      "byteLength": 384,
      "target": 34962,
      "byteStride": 12
    },
    {
      "buffer": 0,
      "byteOffset": 1938840,
      "byteLength": 384,
      "target": 34962,
      "byteStride": 12
    },
    {
      "buffer": 0,
      "byteOffset": 1939224,
      "byteLength": 256,
      "target": 34962,
      "byteStride": 8
    },
    {
      "buffer": 0,
      "byteOffset": 1939480,
      "byteLength": 360,
      "target": 34963
    },
    {
      "buffer": 0,
      "byteOffset": 1939840,
      "byteLength": 384,
      "target": 34962,
      "byteStride": 12
    },
    {
      "buffer": 0,
      "byteOffset": 1940224,
      "byteLength": 384,
      "target": 34962,
      "byteStride": 12
    },
    {
      "buffer": 0,
      "byteOffset": 1940608,
      "byteLength": 256,
      "target": 34962,
      "byteStride": 8
    },
    {
      "buffer": 0,
      "byteOffset": 1940864,
      "byteLength": 360,
      "target": 34963
    },
    {
      "buffer": 0,
      "byteOffset": 1941224,
      "byteLength": 6024,
      "target": 34962,
      "byteStride": 12
    },
    {
      "buffer": 0,
      "byteOffset": 1947248,
      "byteLength": 6024,
      "target": 34962,
      "byteStride": 12
    },
    {
      "buffer": 0,
      "byteOffset": 1953272,
      "byteLength": 4016,
      "target": 34962,
      "byteStride": 8
    },
    {
      "buffer": 0,
      "byteOffset": 1957288,
      "byteLength": 6024,
      "target": 34963
    }
  ],
  "buffers": [
    {
      "byteLength": 1963312,
      "uri": "data:application/octet-stream;base64,"
    }
  ],
  "accessors": [
    {
      "bufferView": 0,
      "componentType": 5126,
      "count": 404,
      "max": [
        0.0435386560857296,
        0.03888837620615959,
        -0.9990510940551758
      ],
      "min": [
        -0.043541304767131805,
        -0.03888753056526184,
        -0.9992469549179077
      ],
      "type": "VEC3"
    },
    {
      "bufferView": 1,
      "componentType": 5126,
      "count": 404,
      "max": [
        40.2452392578125,
        20.489866256713867,
        -3.537031650543213
      ],
      "min": [
        -47.94319152832031,
        -19.259069442749023,
        -3.5370383262634277
      ],
      "type": "VEC3"
    },
    {
      "bufferView": 2,
      "componentType": 5126,
      "count": 404,
      "max": [
        0.9527905583381653,
        0.9798353910446167
      ],
      "min": [
        0.04720976948738098,
        0.020164700224995613
      ],
      "type": "VEC2"
    },
    {
      "bufferView": 3,
      "componentType": 5125,
      "count": 1206,
      "max": [
        403
      ],
      "min": [
        0
      ],
      "type": "SCALAR"
    },
    {
      "bufferView": 4,
      "componentType": 5126,
      "count": 34885,
      "max": [
        1,
        1,
        1
      ],
      "min": [
        -1,
        -1,
        -1
      ],
      "type": "VEC3"
    },
    {
      "bufferView": 5,
      "componentType": 5126,
      "count": 34885,
      "max": [
        42.214210510253906,
        22.69816017150879,
        4.810988426208496
      ],
      "min": [
        -49.91215515136719,
        -21.877710342407227,
        -3.5370383262634277
      ],
      "type": "VEC3"
    },
    {
      "bufferView": 6,
      "componentType": 5126,
      "count": 34885,
      "max": [
        1,
        1
      ],
      "min": [
        0,
        0
      ],
      "type": "VEC2"
    },
    {
      "bufferView": 7,
      "componentType": 5125,
      "count": 201096,
      "max": [
        34884
      ],
      "min": [
        0
      ],
      "type": "SCALAR"
    },
    {
      "bufferView": 8,
      "componentType": 5126,
      "count": 32,
      "max": [
        8.828085924506013e-7,
        1,
        0
      ],
      "min": [
        8.828085924506013e-7,
        1,
        0
      ],
      "type": "VEC3"
    },
    {
      "bufferView": 9,
      "componentType": 5126,
      "count": 32,
      "max": [
        -30.390382766723633,
        22.319904327392578,
        0.42140454053878784
      ],
      "min": [
        -30.711050033569336,
        22.319904327392578,
        -0.11822019517421722
      ],
      "type": "VEC3"
    },
    {
      "bufferView": 10,
      "componentType": 5126,
      "count": 32,
      "max": [
        0,
        0
      ],
      "min": [
        0,
        0
      ],
      "type": "VEC2"
    },
    {
      "bufferView": 11,
      "componentType": 5125,
      "count": 90,
      "max": [
        31
      ],
      "min": [
        0
      ],
      "type": "SCALAR"
    },
    {
      "bufferView": 12,
      "componentType": 5126,
      "count": 32,
      "max": [
        -1.5127132257930498e-7,
        -6.986039124967647e-8,
        1
      ],
      "min": [
        -1.5127132257930498e-7,
        -6.986039124967647e-8,
        1
      ],
      "type": "VEC3"
    },
    {
      "bufferView": 13,
      "componentType": 5126,
      "count": 32,
      "max": [
        36.22629165649414,
        17.214262008666992,
        3.4620561599731445
      ],
      "min": [
        30.39126968383789,
        11.405647277832031,
        3.462055206298828
      ],
      "type": "VEC3"
    },
    {
      "bufferView": 14,
      "componentType": 5126,
      "count": 32,
      "max": [
        0,
        0
      ],
      "min": [
        0,
        0
      ],
      "type": "VEC2"
    },
    {
      "bufferView": 15,
      "componentType": 5125,
      "count": 90,
      "max": [
        31
      ],
      "min": [
        0
      ],
      "type": "SCALAR"
    },
    {
      "bufferView": 16,
      "componentType": 5126,
      "count": 502,
      "max": [
        -1.4890476052187296e-7,
        8.427828390722425e-8,
        1
      ],
      "min": [
        -2.1942317118828214e-7,
        -3.5401438935878105e-7,
        1
      ],
      "type": "VEC3"
    },
    {
      "bufferView": 17,
      "componentType": 5126,
      "count": 502,
      "max": [
        38.00349044799805,
        18.75017738342285,
        4.810988426208496
      ],
      "min": [
        22.35973358154297,
        3.1772165298461914,
        4.607760906219482
      ],
      "type": "VEC3"
    },
    {
      "bufferView": 18,
      "componentType": 5126,
      "count": 502,
      "max": [
        0.9530019164085388,
        0.9530020356178284
      ],
      "min": [
        0,
        0
      ],
      "type": "VEC2"
    },
    {
      "bufferView": 19,
      "componentType": 5125,
      "count": 1506,
      "max": [
        501
      ],
      "min": [
        0
      ],
      "type": "SCALAR"
    }
  ],
  "materials": [
    {
      "pbrMetallicRoughness": {
        "baseColorFactor": [
          0,
          0,
          0,
          1
        ],
        "metallicFactor": 0,
        "roughnessFactor": 0.00632912
      },
      "doubleSided": true,
      "name": "Material.002"
    },
    {
      "pbrMetallicRoughness": {
        "baseColorFactor": [
          0,
          0,
          0,
          1
        ],
        "metallicFactor": 0.24672830447817481,
        "roughnessFactor": 0.5
      },
      "doubleSided": true,
      "name": "Material.008",
      "extensions": {
        "KHR_materials_specular": {
          "specularFactor": 0.403746713316427,
          "specularColorFactor": [
            1,
            1,
            1
          ]
        }
      }
    },
    {
      "pbrMetallicRoughness": {
        "baseColorFactor": [
          0,
          0,
          0,
          1
        ],
        "metallicFactor": 0,
        "roughnessFactor": 0.006
      },
      "doubleSided": true,
      "name": "Material.009"
    },
    {
      "pbrMetallicRoughness": {
        "baseColorFactor": [
          0.8,
          0.8,
          0.8,
          1
        ],
        "metallicFactor": 1,
        "roughnessFactor": 0.006
      },
      "doubleSided": true,
      "name": "Material.010"
    },
    {
      "pbrMetallicRoughness": {
        "baseColorFactor": [
          0,
          0,
          0,
          1
        ],
        "metallicFactor": 0,
        "roughnessFactor": 0.00632913
      },
      "doubleSided": true,
      "name": "Material.011"
    }
  ],
  "meshes": [
    {
      "primitives": [
        {
          "mode": 4,
          "attributes": {
            "NORMAL": 0,
            "POSITION": 1,
            "TEXCOORD_0": 2
          },
          "indices": 3,
          "material": 0
        }
      ]
    },
    {
      "primitives": [
        {
          "mode": 4,
          "attributes": {
            "NORMAL": 4,
            "POSITION": 5,
            "TEXCOORD_0": 6
          },
          "indices": 7,
          "material": 1
        }
      ]
    },
    {
      "primitives": [
        {
          "mode": 4,
          "attributes": {
            "NORMAL": 8,
            "POSITION": 9,
            "TEXCOORD_0": 10
          },
          "indices": 11,
          "material": 2
        }
      ]
    },
    {
      "primitives": [
        {
          "mode": 4,
          "attributes": {
            "NORMAL": 12,
            "POSITION": 13,
            "TEXCOORD_0": 14
          },
          "indices": 15,
          "material": 3
        }
      ]
    },
    {
      "primitives": [
        {
          "mode": 4,
          "attributes": {
            "NORMAL": 16,
            "POSITION": 17,
            "TEXCOORD_0": 18
          },
          "indices": 19,
          "material": 4
        }
      ]
    }
  ],
  "extensionsUsed": [
    "KHR_materials_specular"
  ]
}