{
  "asset": {
    "version": "2.0",
    "generator": "3dpea GLTFExporter"
  },
  "scenes": [
    {
      "name": "AuxScene",
      "nodes": [
        10
      ]
    }
  ],
  "scene": 0,
  "nodes": [
    {
      "name": "Cube008",
      "mesh": 0
    },
    {
      "name": "Cube008_1",
      "mesh": 1
    },
    {
      "name": "Cube008_2",
      "mesh": 2
    },
    {
      "matrix": [
        1,
        0,
        0,
        0,
        0,
        -1.3435885648505064e-7,
        1.0000001343588565,
        0,
        0,
        -1.0000001343588565,
        -1.3435885648505064e-7,
        0,
        0,
        2.9645867347717285,
        -0.13032397627830505,
        1
      ],
      "name": "screen",
      "extras": {
        "name": "screen"
      },
      "children": [
        0,
        1,
        2
      ]
    },
    {
      "matrix": [
        1,
        0,
        0,
        0,
        0,
        0.9998960796457846,
        0.014416306947280244,
        0,
        0,
        -0.014416306947280244,
        0.9998960796457846,
        0,
        0.0024824142456054688,
        -0.03834950178861618,
        0.41413453221321106,
        1
      ],
      "name": "screenflip",
      "extras": {
        "name": "screenflip"
      },
      "children": [
        3
      ]
    },
    {
      "name": "Cube002",
      "mesh": 3
    },
    {
      "name": "Cube002_1",
      "mesh": 4
    },
    {
      "matrix": [
        1,
        0,
        0,
        0,
        0,
        1,
        0,
        0,
        0,
        0,
        1,
        0,
        0,
        -0.09984040260314941,
        3.3942787647247314,
        1
      ],
      "name": "base",
      "extras": {
        "name": "base"
      },
      "children": [
        5,
        6
      ]
    },
    {
      "matrix": [
        1,
        0,
        0,
        0,
        0,
        1,
        0,
        0,
        0,
        0,
        1,
        0,
        0.000022411346435546875,
        -0.02690178155899048,
        1.2011785507202148,
        1
      ],
      "name": "touchbar",
      "extras": {
        "name": "touchbar"
      },
      "mesh": 5
    },
    {
      "matrix": [
        1,
        0,
        0,
        0,
        0,
        1,
        0,
        0,
        0,
        0,
        1,
        0,
        1.792813777923584,
        0,
        3.4507498741149902,
        1
      ],
      "name": "keyboard",
      "extras": {
        "name": "keyboard"
      },
      "mesh": 6
    },
    {
      "name": "laptop",
      "children": [
        4,
        7,
        8,
        9
      ]
    }
  ],
  "bufferViews": [
    {
      "buffer": 0,
      "byteOffset": 0,
      "byteLength": 3780,
      "target": 34962,
      "byteStride": 12
    },
    {
      "buffer": 0,
      "byteOffset": 3780,
      "byteLength": 3780,
      "target": 34962,
      "byteStride": 12
    },
    {
      "buffer": 0,
      "byteOffset": 7560,
      "byteLength": 2520,
      "target": 34962,
      "byteStride": 8
    },
    {
      "buffer": 0,
      "byteOffset": 10080,
      "byteLength": 4092,
      "target": 34963
    },
    {
      "buffer": 0,
      "byteOffset": 14172,
      "byteLength": 1080,
      "target": 34962,
      "byteStride": 12
    },
    {
      "buffer": 0,
      "byteOffset": 15252,
      "byteLength": 1080,
      "target": 34962,
      "byteStride": 12
    },
    {
      "buffer": 0,
      "byteOffset": 16332,
      "byteLength": 720,
      "target": 34962,
      "byteStride": 8
    },
    {
      "buffer": 0,
      "byteOffset": 17052,
      "byteLength": 960,
      "target": 34963
    },
    {
      "buffer": 0,
      "byteOffset": 18012,
      "byteLength": 48,
      "target": 34962,
      "byteStride": 12
    },
    {
      "buffer": 0,
      "byteOffset": 18060,
      "byteLength": 48,
      "target": 34962,
      "byteStride": 12
    },
    {
      "buffer": 0,
      "byteOffset": 18108,
      "byteLength": 32,
      "target": 34962,
      "byteStride": 8
    },
    {
      "buffer": 0,
      "byteOffset": 18140,
      "byteLength": 24,
      "target": 34963
    },
    {
      "buffer": 0,
      "byteOffset": 18164,
      "byteLength": 7800,
      "target": 34962,
      "byteStride": 12
    },
    {
      "buffer": 0,
      "byteOffset": 25964,
      "byteLength": 7800,
      "target": 34962,
      "byteStride": 12
    },
    {
      "buffer": 0,
      "byteOffset": 33764,
      "byteLength": 5200,
      "target": 34962,
      "byteStride": 8
    },
    {
      "buffer": 0,
      "byteOffset": 38964,
      "byteLength": 7680,
      "target": 34963
    },
    {
      "buffer": 0,
      "byteOffset": 46644,
      "byteLength": 528,
      "target": 34962,
      "byteStride": 12
    },
    {
      "buffer": 0,
      "byteOffset": 47172,
      "byteLength": 528,
      "target": 34962,
      "byteStride": 12
    },
    {
      "buffer": 0,
      "byteOffset": 47700,
      "byteLength": 352,
      "target": 34962,
      "byteStride": 8
    },
    {
      "buffer": 0,
      "byteOffset": 48052,
      "byteLength": 504,
      "target": 34963
    },
    {
      "buffer": 0,
      "byteOffset": 48556,
      "byteLength": 672,
      "target": 34962,
      "byteStride": 12
    },
    {
      "buffer": 0,
      "byteOffset": 49228,
      "byteLength": 672,
      "target": 34962,
      "byteStride": 12
    },
    {
      "buffer": 0,
      "byteOffset": 49900,
      "byteLength": 448,
      "target": 34962,
      "byteStride": 8
    },
    {
      "buffer": 0,
      "byteOffset": 50348,
      "byteLength": 528,
      "target": 34963
    },
    {
      "buffer": 0,
      "byteOffset": 50876,
      "byteLength": 39840,
      "target": 34962,
      "byteStride": 12
    },
    {
      "buffer": 0,
      "byteOffset": 90716,
      "byteLength": 39840,
      "target": 34962,
      "byteStride": 12
    },
    {
      "buffer": 0,
      "byteOffset": 130556,
      "byteLength": 26560,
      "target": 34962,
      "byteStride": 8
    },
    {
      "buffer": 0,
      "byteOffset": 157116,
      "byteLength": 26560,
      "target": 34962,
      "byteStride": 8
    },
    {
      "buffer": 0,
      "byteOffset": 183676,
      "byteLength": 25992,
      "target": 34963
    }
  ],
  "buffers": [
    {
      "byteLength": 209668,
      "uri": "data:application/octet-stream;base64,"
    }
  ],
  "accessors": [
    {
      "bufferView": 0,
      "componentType": 5126,
      "count": 315,
      "max": [
        4.401432514190674,
        0.1438472718000412,
        3.024977922439575
      ],
      "min": [
        -4.401432514190674,
        -0.07537807524204254,
        -3.0257489681243896
      ],
      "type": "VEC3"
    },
    {
      "bufferView": 1,
      "componentType": 5126,
      "count": 315,
      "max": [
        1,
        1,
        1
      ],
      "min": [
        -1,
        -1,
        -1
      ],
      "type": "VEC3"
    },
    {
      "bufferView": 2,
      "componentType": 5126,
      "count": 315,
      "max": [
        1.4021854400634766,
        2.413076877593994
      ],
      "min": [
        -0.030413683503866196,
        -0.06642162799835205
      ],
      "type": "VEC2"
    },
    {
      "bufferView": 3,
      "componentType": 5125,
      "count": 1023,
      "max": [
        314
      ],
      "min": [
        0
      ],
      "type": "SCALAR"
    },
    {
      "bufferView": 4,
      "componentType": 5126,
      "count": 90,
      "max": [
        4.373711109161377,
        0.14547620713710785,
        3.0103189945220947
      ],
      "min": [
        -4.373711109161377,
        0.03868962824344635,
        -2.9980275630950928
      ],
      "type": "VEC3"
    },
    {
      "bufferView": 5,
      "componentType": 5126,
      "count": 90,
      "max": [
        0,
        1,
        1
      ],
      "min": [
        0,
        -1,
        -1
      ],
      "type": "VEC3"
    },
    {
      "bufferView": 6,
      "componentType": 5126,
      "count": 90,
      "max": [
        1.0217137336730957,
        2.386165142059326
      ],
      "min": [
        -0.02832021936774254,
        -0.04452395439147949
      ],
      "type": "VEC2"
    },
    {
      "bufferView": 7,
      "componentType": 5125,
      "count": 240,
      "max": [
        89
      ],
      "min": [
        0
      ],
      "type": "SCALAR"
    },
    {
      "bufferView": 8,
      "componentType": 5126,
      "count": 4,
      "max": [
        4.150346279144287,
        0.03868962824344635,
        2.598520517349243
      ],
      "min": [
        -4.150343418121338,
        0.03868962824344635,
        -2.7746598720550537
      ],
      "type": "VEC3"
    },
    {
      "bufferView": 9,
      "componentType": 5126,
      "count": 4,
      "max": [
        0,
        1,
        0
      ],
      "min": [
        0,
        1,
        0
      ],
      "type": "VEC3"
    },
    {
      "bufferView": 10,
      "componentType": 5126,
      "count": 4,
      "max": [
        0.9967269897460938,
        0.999894380569458
      ],
      "min": [
        0.004772054962813854,
        -0.0028346776962280273
      ],
      "type": "VEC2"
    },
    {
      "bufferView": 11,
      "componentType": 5125,
      "count": 6,
      "max": [
        3
      ],
      "min": [
        0
      ],
      "type": "SCALAR"
    },
    {
      "bufferView": 12,
      "componentType": 5126,
      "count": 650,
      "max": [
        4.401432514190674,
        0.12209884077310562,
        3.024977684020996
      ],
      "min": [
        -4.401432514190674,
        -0.11002210527658463,
        -3.0257492065429688
      ],
      "type": "VEC3"
    },
    {
      "bufferView": 13,
      "componentType": 5126,
      "count": 650,
      "max": [
        1,
        1,
        1
      ],
      "min": [
        -1,
        -1,
        -1
      ],
      "type": "VEC3"
    },
    {
      "bufferView": 14,
      "componentType": 5126,
      "count": 650,
      "max": [
        0.9998748898506165,
        0.9925797581672668
      ],
      "min": [
        0.005900149699300528,
        0.007343292236328125
      ],
      "type": "VEC2"
    },
    {
      "bufferView": 15,
      "componentType": 5125,
      "count": 1920,
      "max": [
        649
      ],
      "min": [
        0
      ],
      "type": "SCALAR"
    },
    {
      "bufferView": 16,
      "componentType": 5126,
      "count": 44,
      "max": [
        2.01312255859375,
        0.1112826019525528,
        2.890718460083008
      ],
      "min": [
        -2.01312255859375,
        0.1112826019525528,
        0.4105339050292969
      ],
      "type": "VEC3"
    },
    {
      "bufferView": 17,
      "componentType": 5126,
      "count": 44,
      "max": [
        0,
        -1,
        0
      ],
      "min": [
        0,
        -1,
        0
      ],
      "type": "VEC3"
    },
    {
      "bufferView": 18,
      "componentType": 5126,
      "count": 44,
      "max": [
        0.16359977424144745,
        0.369720458984375
      ],
      "min": [
        0.002418064745143056,
        0.09169220924377441
      ],
      "type": "VEC2"
    },
    {
      "bufferView": 19,
      "componentType": 5125,
      "count": 126,
      "max": [
        43
      ],
      "min": [
        0
      ],
      "type": "SCALAR"
    },
    {
      "bufferView": 20,
      "componentType": 5126,
      "count": 56,
      "max": [
        3.4431190490722656,
        0.02861860953271389,
        0.135385200381279
      ],
      "min": [
        -3.4431190490722656,
        -0.028546033427119255,
        -0.13698752224445343
      ],
      "type": "VEC3"
    },
    {
      "bufferView": 21,
      "componentType": 5126,
      "count": 56,
      "max": [
        0.9811944365501404,
        1,
        0.9811945557594299
      ],
      "min": [
        -0.9811944365501404,
        -1,
        -0.9811944961547852
      ],
      "type": "VEC3"
    },
    {
      "bufferView": 22,
      "componentType": 5126,
      "count": 56,
      "max": [
        0.8746947646141052,
        1
      ],
      "min": [
        0.125,
        0
      ],
      "type": "VEC2"
    },
    {
      "bufferView": 23,
      "componentType": 5125,
      "count": 132,
      "max": [
        55
      ],
      "min": [
        0
      ],
      "type": "SCALAR"
    },
    {
      "bufferView": 24,
      "componentType": 5126,
      "count": 3320,
      "max": [
        1.6524066925048828,
        0.035084791481494904,
        0.20789265632629395
      ],
      "min": [
        -5.234484672546387,
        -0.03217411786317825,
        -2.0629360675811768
      ],
      "type": "VEC3"
    },
    {
      "bufferView": 25,
      "componentType": 5126,
      "count": 3320,
      "max": [
        0.9999688863754272,
        1,
        0.9999688863754272
      ],
      "min": [
        -0.9999688863754272,
        -0.016029486432671547,
        -0.9999688863754272
      ],
      "type": "VEC3"
    },
    {
      "bufferView": 26,
      "componentType": 5126,
      "count": 3320,
      "max": [
        0.9925065040588379,
        0.9888634085655212
      ],
      "min": [
        -0.00475649256259203,
        0.12408173084259033
      ],
      "type": "VEC2"
    },
    {
      "bufferView": 27,
      "componentType": 5126,
      "count": 3320,
      "max": [
        0.9667418003082275,
        0.9294763803482056
      ],
      "min": [
        0.02964666485786438,
        0.0088576078414917
      ],
      "type": "VEC2"
    },
    {
      "bufferView": 28,
      "componentType": 5125,
      "count": 6498,
      "max": [
        3319
      ],
      "min": [
        0
      ],
      "type": "SCALAR"
    }
  ],
  "materials": [
    {
      "pbrMetallicRoughness": {
        "baseColorFactor": [
          0.6038273388475408,
          0.6038273388475408,
          0.6038273388475408,
          1
        ],
        "metallicFactor": 1,
        "roughnessFactor": 0.5
      },
      "doubleSided": true,
      "name": "aluminium"
    },
    {
      "pbrMetallicRoughness": {
        "baseColorFactor": [
          0,
          0,
          0,
          1
        ],
        "metallicFactor": 0,
        "roughnessFactor": 0.5
      },
      "doubleSided": true,
      "name": "matte.001"
    },
    {
      "pbrMetallicRoughness": {
        "metallicFactor": 0,
        "roughnessFactor": 0.09999999403953552,
        "baseColorTexture": {
          "index": 0
        }
      },
      "doubleSided": true,
      "name": "screen.001"
    },
    {
      "pbrMetallicRoughness": {
        "baseColorFactor": [
          0.6053217649459839,
          0.6053217649459839,
          0.6053217649459839,
          1
        ],
        "metallicFactor": 1,
        "roughnessFactor": 0.5
      },
      "doubleSided": true,
      "name": "aluminium"
    },
    {
      "pbrMetallicRoughness": {
        "baseColorFactor": [
          0.3290732800960541,
          0.3290732800960541,
          0.3290732800960541,
          1
        ],
        "metallicFactor": 1,
        "roughnessFactor": 0.6613636016845703
      },
      "doubleSided": true,
      "name": "trackpad"
    },
    {
      "pbrMetallicRoughness": {
        "baseColorFactor": [
          0,
          0,
          0,
          1
        ],
        "metallicFactor": 0,
        "roughnessFactor": 0.18409091234207153
      },
      "doubleSided": true,
      "name": "touchbar"
    },
    {
      "pbrMetallicRoughness": {
        "baseColorFactor": [
          0,
          0,
          0,
          1
        ],
        "metallicFactor": 0.6766917705535889,
        "roughnessFactor": 0.8270676732063293
      },
      "doubleSided": true,
      "name": "keys"
    }
  ],
  "meshes": [
    {
      "primitives": [
        {
          "mode": 4,
          "attributes": {
            "POSITION": 0,
            "NORMAL": 1,
            "TEXCOORD_0": 2
          },
          "indices": 3,
          "material": 0
        }
      ]
    },
    {
      "primitives": [
        {
          "mode": 4,
          "attributes": {
            "POSITION": 4,
            "NORMAL": 5,
            "TEXCOORD_0": 6
          },
          "indices": 7,
          "material": 1
        }
      ]
    },
    {
      "primitives": [
        {
          "mode": 4,
          "attributes": {
            "POSITION": 8,
            "NORMAL": 9,
            "TEXCOORD_0": 10
          },
          "indices": 11,
          "material": 2
        }
      ]
    },
    {
      "primitives": [
        {
          "mode": 4,
          "attributes": {
            "POSITION": 12,
            "NORMAL": 13,
            "TEXCOORD_0": 14
          },
          "indices": 15,
          "material": 3
        }
      ]
    },
    {
      "primitives": [
        {
          "mode": 4,
          "attributes": {
            "POSITION": 16,
            "NORMAL": 17,
            "TEXCOORD_0": 18
          },
          "indices": 19,
          "material": 4
        }
      ]
    },
    {
      "primitives": [
        {
          "mode": 4,
          "attributes": {
            "POSITION": 20,
            "NORMAL": 21,
            "TEXCOORD_0": 22
          },
          "indices": 23,
          "material": 5
        }
      ]
    },
    {
      "primitives": [
        {
          "mode": 4,
          "attributes": {
            "POSITION": 24,
            "NORMAL": 25,
            "TEXCOORD_0": 26,
            "TEXCOORD_1": 27
          },
          "indices": 28,
          "material": 6
        }
      ]
    }
  ],
  "textures": [
    {
      "sampler": 0,
      "source": 0
    }
  ],
  "samplers": [
    {
      "magFilter": 9729,
      "minFilter": 9987,
      "wrapS": 10497,
      "wrapT": 10497
    }
  ],
  "images": [
    {
      "mimeType": "image/png",
      "uri": "data:image/png;base64,"
    }
  ]
}